<svg xmlns="http://www.w3.org/2000/svg" width="256" height="256" viewBox="0 0 256 256"><path fill="#231f20" d="M58.6 167a38.9 38.9 0 0 0-7.8.8v.2c0 .3.3.6.8 1a12.3 12.3 0 0 0 2 1l2.7 1 2.8.9 2.4.6 1.5.2h2.1l2.6-.4 2.4-.9a5 5 0 0 0 1.7-1.5 29.3 29.3 0 0 0-6.5-2.2 29.9 29.9 0 0 0-6.7-.7z"/><path fill="#231f20" d="M128-.3a128 128 0 1 0 128 128A128 128 0 0 0 128-.3zm83.5 70.6v.3a8.8 8.8 0 0 1-.1 1.4c-.2.7-.2 1.4-.4 2.1s-.2 1.5-.3 2.1-.2 1.1-.2 1.4a16.2 16.2 0 0 0-1 1.8l-.6 2-.6 2a15.9 15.9 0 0 1-.7 2l-1.7 3.1a21.1 21.1 0 0 0-1.6 3l-20.1 27.9-.2.6-.3.3-.3.3a1.1 1.1 0 0 0-.4.5l-1.7 2.2-2.1 2.9c-.7 1.1-1.4 2.2-2.2 3.3s-1.4 2.2-2 3.3-1 2.1-1.4 3a8 8 0 0 0-.5 2.3c0 .3-.2.5-.2.7s.2.5.2.7a.3.3 0 0 0-.3.3.5.5 0 0 0 .3.5v10.2a2.2 2.2 0 0 1-.3 1l-.3 1.2a6.7 6.7 0 0 0-.6 1.2 3.4 3.4 0 0 0-.5 1.1v1.7a.5.5 0 0 1 0 .4c-.2.3-.2.5-.4.8l-.7.8a1.1 1.1 0 0 1-.6.4v.4c0 .1.7.3.8.5s.9.3.9.4v2.8a22.5 22.5 0 0 1-.6 3.6c-.2 1.2-.6 2.3-.8 3.5s-.5 2.4-.7 3.5-.3 2.4-.3 3.6.1 4.2.3 6.3a42.3 42.3 0 0 0 1.1 6.2 28.6 28.6 0 0 0 2.1 5.8 25.6 25.6 0 0 0 3.5 5.3 7.4 7.4 0 0 1-1.3.8l-1.7.7-1.7.5h-1.9l-1.1-.2-1.2-.3-1-.2h-.7l-.8-.3-.6-.5a1.5 1.5 0 0 1-.3-.7 28.1 28.1 0 0 0 .1-4.1 31.1 31.1 0 0 0-.3-4.3c-.1-1.4-.3-2.9-.5-4.3s-.4-2.8-.5-4.1-.1-.3-.2-.7l-.3-.6c.1-1.1.1-2.3.2-3.6s-.1-2.7-.2-4.1a25.7 25.7 0 0 0-.6-4 11.6 11.6 0 0 0-1.4-3.4 3.5 3.5 0 0 0-1.5 1.8 17.6 17.6 0 0 0-.7 2.7c-.3 1-.2 2-.5 2.9a15.3 15.3 0 0 0-.9 2.4v7.6c0 2.8-.2 5.6-.1 8.3s.2 5.5.5 8.3l.5.3.8.6.8.7a1.3 1.3 0 0 1 .3.7c0 .2-.2.5-.8.8a7.5 7.5 0 0 1-1.8.8l-2.1.9-1.3.4h-.2l-4.7-2.6a.5.5 0 0 1-.3-.5v-.7a14.5 14.5 0 0 1 .1-3 29.1 29.1 0 0 0 .1-3.1c0-1.2-.2-2.5-.3-3.8l-.6-3.7-.6-3.8a25.6 25.6 0 0 1-.3-3.9c0-1.3.1-2.4.1-3.4a27 27 0 0 1 .4-2.8c.2-.9.3-1.8.5-2.8s.4-2 .7-3.2a2 2 0 0 0-.1-.7c0-.4-.1-.6-.1-.8l-1.9.3-1.8.5-2 .6-1.9.5-1.4.2h-1c-.4.1-.7-.1-1-.1H134a46 46 0 0 1-5.3-.1h-7.8a4 4 0 0 0-2.3.8v5.3c-.1 1.7-.1 3.4-.2 5.1l-.3 5.1c0 1.8-.1 3.5-.1 5.3v5.1c0 .5.7 1.1 1.1 1.7a11.5 11.5 0 0 1 1.4 1.7 9.4 9.4 0 0 1 1.2 1.8 3.2 3.2 0 0 1 .6 1.8v.4a11 11 0 0 1-4.1.4c.1.4 0 .7-.2.8h-2.7a8.5 8.5 0 0 1-2.3-.3 3.7 3.7 0 0 1-1.8-.8 2.4 2.4 0 0 1-.8-1.9c0-.4.1-.8.1-1.3a6.5 6.5 0 0 1 .4-1.3l.3-1.3a6.6 6.6 0 0 0 .1-1.4 24.7 24.7 0 0 0-.3-3.9c-.1-1.2-.4-2.4-.6-3.6s-.6-2.7-.9-3.8a32.7 32.7 0 0 1-.7-4h-.4c-.2 0-.4.7-.5.9s-.3.5-.4.7l-.4.5-1.5 2.3a18.2 18.2 0 0 0-1.5 2.3 25.6 25.6 0 0 0-1.1 2.4 8.4 8.4 0 0 0-.4 2.7 5.1 5.1 0 0 0 .3 1.7l.8 1.5.7 1.2.3.5a.9.9 0 0 1-.4.8l-1 .4-1.3.3h-4.5l-1.1-.4a2.2 2.2 0 0 1-.7-.9 5 5 0 0 1-.5-1.6l-.6-1.6a9.9 9.9 0 0 1-.2-1.7 2.8 2.8 0 0 1 .4-1.5l.9-1.6 1.1-1.6a5.5 5.5 0 0 0 .8-1.5c.9-1.9 1.7-3.9 2.5-5.9s1.6-4 2.5-5.9l.4-.8.6-.7a2 2 0 0 0 .4-.8 1.9 1.9 0 0 0 .2-.8q0-.6-.3-.6h-1.3l-9.1 2.4a3.2 3.2 0 0 1-1.3.6l-1.8.4-1.6.5a1.4 1.4 0 0 0-.7 1.1 1.2 1.2 0 0 0 .3.9l.7.7.8.5.7.6-.4.5-1.2-.9-1.5-.8a4.7 4.7 0 0 0-1.5-.6 4 4 0 0 0-1.5-.3 13.1 13.1 0 0 0-3.8.6l-4 1.1-4.1 1.1a15.4 15.4 0 0 1-4.3.6l-3.5-.4-4.9-1.2c-1.8-.5-3.6-1-5.5-1.7a46.7 46.7 0 0 1-5-2.3 15.4 15.4 0 0 1-3.7-2.7 4.2 4.2 0 0 1-1.4-3 4.4 4.4 0 0 1 1.1-3.3 6.4 6.4 0 0 1 2.8-1.6c1.1-.4 2.2-.1 3.5-.2s2.3.4 3.3.4h4c.2 0 .6-.4 1.3-.3a23.2 23.2 0 0 1 2.4.2l2.6.3 1.9.2a6.6 6.6 0 0 1 2 .6l1.8.8 1.8.8a7.1 7.1 0 0 0 2.1.3 9.1 9.1 0 0 0 4-1 35.4 35.4 0 0 0 4.1-2.6 41.6 41.6 0 0 0 3.9-3.2l3.3-2.7 1.9-1.2L94 156a10.9 10.9 0 0 0 1.7-1.3 6.1 6.1 0 0 0 1.5-1.7q1.5-2.2 2.7-4.5a20.7 20.7 0 0 1 2.7-4.5 8.6 8.6 0 0 1 1.3-1.4l1.5-1 1.7-.8 1.6-1a33.2 33.2 0 0 0 3.6-2.6l3.5-2.9 3.4-3.1 3.5-2.9a23.6 23.6 0 0 1 3.8-2.2l3.9-1.8 2.5-1.3 2.5-1.4 2.6-1.1a13.8 13.8 0 0 1 2.7-.8l22.6-3.2a13.2 13.2 0 0 0 3.5-1.2 17.9 17.9 0 0 0 3.4-2.2 42 42 0 0 0 3.2-2.9l2.9-3.3 2.7-3.2 2.3-2.8 7.8-9.1.3-.2.6-.6.5-.5c.2-.2.2-.3.3-.3l2-3.3h.3l.4-.3.3-.2.3-.2c0-.1.2-.2.4-.4l.3-.4 1.3-1.7 1.4-2 1.3-2 1-1.7a18 18 0 0 0 .8-2.1 17.2 17.2 0 0 0 .7-2.1c.3-.7.5-1.5.8-2.2s1-1.5 1-2.2v-6.2a5.3 5.3 0 0 0-1.1-3.1 12.8 12.8 0 0 0-2.6-2.6 12.4 12.4 0 0 0-3.4-1.8 8.4 8.4 0 0 0-3.2-.7 22.7 22.7 0 0 0-5.9.7 12.2 12.2 0 0 0-5.2 2.6l-1.4 1.5-1.6 1.8-1.8 2.1a16.2 16.2 0 0 1-1.9 1.8 10.2 10.2 0 0 1-1.8 1.3 3.2 3.2 0 0 1-1.8.6 1.6 1.6 0 0 1-1.1-.5 1.6 1.6 0 0 1-.6-1.2v-.4l.2-.5c0-.2.1-.5.1-.8s.1-.5.2-.7v-.5a4.7 4.7 0 0 0-.2-1.7l-.6-1.4-.6-1.2a2.4 2.4 0 0 1-.3-1.2 1.2 1.2 0 0 0 .9-.3l.4-.6.5-.8a1.8 1.8 0 0 1 .8-.6h2.8a1.3 1.3 0 0 0 1-.4 4.6 4.6 0 0 1 .7-.7h.4c.1 0 .1.2.2.4s.2.3.2.4a.4.4 0 0 1 .4-.4l.7-.4 1.1-.6 1.3-.8 1.4-.8 1.1-.7.6-.4 2.1-1.3a6.4 6.4 0 0 1 1.8-.6l1.9-.2h6.5a4.7 4.7 0 0 0 1.5.6l1.5.3 1.6.3 1.5.5a16.6 16.6 0 0 1 4.6 3 19.7 19.7 0 0 1 3.3 4.3 20.4 20.4 0 0 1 1.7 5.1 25 25 0 0 1 .5 5.5v2.3z"/></svg>