<svg xmlns="http://www.w3.org/2000/svg" width="256" height="256" viewBox="0 0 256 256"><path fill="#231f20" d="M132.9 151c-.3 0-.4.2-.4.6h-.1c-.3 0-.5.1-.5.5s.2.6.5.6.4-.2.4-.6h.1c.4 0 .5-.2.5-.5s-.1-.6-.5-.6zm1.5-.8a1.8 1.8 0 0 0-.9.8h.3a2.1 2.1 0 0 0 1.1-.4 1.8 1.8 0 0 0 .9-.8h-.3a1.5 1.5 0 0 0-1.1.4zm3-2.6a.5.5 0 0 0-.4.5h-.1c-.3 0-.4.2-.4.6h-.2c-.3 0-.4.2-.4.6s.1.5.4.5.5-.1.5-.5h.1c.3 0 .5-.2.5-.6a.5.5 0 0 0 .6-.6c0-.3-.2-.5-.6-.5zm23.4-6a8.9 8.9 0 0 1-1.3 1.4c.3.6.5 1 .9 1.1l1.1.2a2.4 2.4 0 0 0 1.4-.5 4.3 4.3 0 0 0 1.1-1.2l.8-1.5c.2-.5.3-1.2.5-1.2h-3.5c-.2 0-.5 1.1-1 1.7z"/><path fill="#231f20" d="M128.3-.3a128 128 0 1 0 128 128 128 128 0 0 0-128-128zm96 75.9l-1.6.4H219a39.3 39.3 0 0 0-5.2 1.3 18.6 18.6 0 0 0-3.7 1.6 8.8 8.8 0 0 0-2.5 2.2 11.9 11.9 0 0 0-1.8 2.9c-.5 1.2-1 2.5-1.5 4l-1.6 5.1-1.2 3.4c-.4 1.1-.9 2.2-1.3 3.2a23 23 0 0 1-1.5 3.2l-1.7 3.2a48.6 48.6 0 0 1-2.7 4.1l-3 3.7-3.1 3.6c-1.1 1.2-2.1 2.5-3.2 3.9a11.1 11.1 0 0 0-1.3 2.7c-.3.9-.7 1.7-1 2.5a7.9 7.9 0 0 1-1.4 2.3 5.4 5.4 0 0 1-2.5 1.6l-1.3.5-2.1.7-2 .6-1.4.4a3.3 3.3 0 0 1 .2 2.1 2 2 0 0 1-.9.9l-1.2.6a1.8 1.8 0 0 0-.9 1l-2.3 6.8a2.5 2.5 0 0 1-1 1.5 5.8 5.8 0 0 1-1.8.8 13.6 13.6 0 0 1-2 .2 10.9 10.9 0 0 1-1.9-.1h-.9c-.4 0-.8.2-1.1 0s-.4-.3-.4-.8 0-.3.1-.4l.2-.3.3-.3c0-.1.1-.2.1-.4a.1.1 0 0 1-.1-.1 26 26 0 0 0-3.4 1.6l-3.4 2.1-3.4 2.2-3.3 2-.9.4-1.2.6a3.9 3.9 0 0 0-1 .8 1.3 1.3 0 0 0-.4 1v.6l1.8 1.6 2 1.8 2 1.6a9.4 9.4 0 0 0 2.2 1.2 4.8 4.8 0 0 0 1.8.7l1.9.6 1.9.6 1.7.9a10 10 0 0 1 1.4 1.5l1.1 1.5a7.6 7.6 0 0 0 1.1 1.4 4.7 4.7 0 0 0 1.5 1.3 3.8 3.8 0 0 0 1.7.6l2.1.7a5.2 5.2 0 0 1 1.8 1 2.1 2.1 0 0 1 .8 1.7c0 .1-.1.2-.1.3v.2l-5.6 1.2-1.1.4-1.2.2h-.6l-1.1-.6-1.7-1.1a12.8 12.8 0 0 1-1.7-1l-1.1-.7-.2-.2-.3-.5-.4-.6-.2-.4-2.3-4.6-1.1-.4-1.9-.8-2.1-.9-2.2-1-1.8-.8-1.1-.6-2.8-1.6a17.8 17.8 0 0 1-2.6-2.2 10.5 10.5 0 0 1-2-2.7 7.2 7.2 0 0 1-1.1-3.1l-.6.2-.6.3-.8.7-1.8 1.2-2.1 1.4-2.1 1.4-1.8 1-1 .6-6 3.5a27.8 27.8 0 0 0-4.6 3.5 17.3 17.3 0 0 0-3.6 4.4c-.9 1.8-.7 4-2.4 6.7v1.6a9.3 9.3 0 0 0 1.2 4.5 7.8 7.8 0 0 0 2.1 2.6 8.7 8.7 0 0 0 2.7 1.4 14.5 14.5 0 0 1 2.5 1 5.3 5.3 0 0 1 2 .9 6.3 6.3 0 0 1 .8 2.1h-13.5l-.2-.4c-.1-.2-.2-.1-.3-.2l-.5-.2-.7-.3a2.8 2.8 0 0 1-1.2-1.6 6.5 6.5 0 0 1-.5-2.1 19.4 19.4 0 0 1 .2-2.4c0-.8.3-1.4.3-2V181a4.7 4.7 0 0 1 .3-1.8c.2-.8.3-1.7.5-2.7s.5-2.1.8-3.2.6-2.2.8-3.2.5-1.9.7-2.6l.4-1.8a9.3 9.3 0 0 1 .7-2 12.4 12.4 0 0 1 1-2 13.9 13.9 0 0 0 4.5-2.5l3.3-3.3c1-1.2 2-2.3 2.9-3.5a15 15 0 0 1 3.5-3.1l1.4-.7 2.1-.8 2.3-1 2.2-1.1a7.3 7.3 0 0 0 1.6-1.4 2 2 0 0 0 .6-1.5v-1.4a1.7 1.7 0 0 0-.6-1.2l-.8-.3-1.2-.5-1.2-.6-.8-.3a9.4 9.4 0 0 1-2-1.2l-2.7-1.9a26.3 26.3 0 0 0-2.6-1.6 3.1 3.1 0 0 0-1.7-.6h-7.9c-6.1 0-12-.1-17.8.1s-11.8.2-17.8.2c-4.5 0-8.8-.1-13-.3s-8.4-.7-12.5-1.4a85.5 85.5 0 0 1-12.1-3 66.2 66.2 0 0 1-11.8-5L21 123l-1.6-1a8 8 0 0 1-1.3-1.3 2.4 2.4 0 0 1-.5-1.6 9.5 9.5 0 0 1 2.1.4l2.4 1 2.2.9 1.5.7 4.7 1.6 5.1 1.5a52.7 52.7 0 0 0 5.2 1 27.7 27.7 0 0 0 4.9.4h25.5l1.2-.2 2.6-.3 3.4-.5 3.6-.7 3.5-.6 2.7-.6 6.9-1.3 7.4-1.6c2.5-.6 5-1.3 7.3-2.1a45.1 45.1 0 0 0 6.7-2.9l3.9-1.8 3.8-1.6 4-1.3a25.9 25.9 0 0 1 4.2-.9h1l1.8-.2h1.8l1-.2 1.9-.3 3.4-.8 4.1-.9 4.1-.9c1.3-.3 2.4-.9 3.3-1.1s1.6-.8 1.9-.8h6.6a67.7 67.7 0 0 1 8 .8c2.6.2 5.2.5 7.9.5a10.2 10.2 0 0 0 5.1-1.3 18.3 18.3 0 0 0 4.5-3.5 28.3 28.3 0 0 0 4-5c1.2-1.9 2.2-3.8 3.2-5.7a55.3 55.3 0 0 0 2.6-5.6l1.8-4.9c.4-1.2.8-2.3 1.1-3.5s.7-2.1 1-3.1.8-1.8 1.2-2.6a7 7 0 0 1 1.8-2 7.3 7.3 0 0 1 2.7-1.7 12.7 12.7 0 0 1 3.8-.8h3.1c.7 1.7 1.7 1 3 1.4s2.4 1 3.6 1.5a21.6 21.6 0 0 1 3 1.8 3.1 3.1 0 0 1 1.2 2.2 2.4 2.4 0 0 1-.4 1.5 3.6 3.6 0 0 1-1.2.6z"/></svg>